<svg xmlns="http://www.w3.org/2000/svg" xmlns:xlink="http://www.w3.org/1999/xlink" id="Layer_1" x="0" y="0" version="1.1" viewBox="0 0 512 512" xml:space="preserve" style="enable-background:new 0 0 512 512"><polygon style="fill:#66bf00" points="108.161 164.688 108.161 8.153 82.797 8.153 38.59 52.36 38.59 234.259 108.161 234.259 229.911 234.259 229.911 164.688"/><polygon style="fill:#dddac5" points="82.797 52.36 82.797 8.153 38.59 52.36"/><polygon style="fill:#66bf00" points="160.34 277.741 229.911 277.741 169.036 503.847 99.465 503.847"/><polygon style="fill:#dddac5" points="108.161 277.741 38.59 277.741 99.465 503.847 169.036 503.847"/><polygon style="fill:#66bf00" points="438.624 329.919 438.624 277.741 282.089 277.741 282.089 459.64 326.296 503.847 438.624 503.847 438.624 451.669 351.66 451.669 351.66 416.883 403.839 416.883 403.839 364.705 351.66 364.705 351.66 329.919"/><polygon style="fill:#dddac5" points="326.296 459.64 282.089 459.64 326.296 503.847"/><circle style="fill:#72ccc5" cx="360.357" cy="121.206" r="113.053"/><path style="fill:#11bba3" d="M386.446,208.17c-62.438,0-113.053-50.616-113.053-113.053c0-24.56,7.835-47.287,21.137-65.827	c-28.595,20.515-47.226,54.038-47.226,91.917c0,62.438,50.615,113.053,113.053,113.053c37.878,0,71.402-18.631,91.917-47.226	C433.733,200.334,411.006,208.17,386.446,208.17z"/><g><path style="fill:#66bf00" d="M334.268,60.331l8.696,26.089l26.089,17.393l17.393,34.786l8.696-34.786V77.724l26.089-26.089 l14.596-14.596c-20.014-17.958-46.465-28.886-75.471-28.886c-24.485,0-47.15,7.787-65.659,21.014l13.48,22.468L334.268,60.331z"/><path style="fill:#66bf00" d="M470.882,97.362l-32.258,6.452l-8.696,43.482l17.393,26.089l7.479,9.972 c11.76-17.834,18.61-39.19,18.61-62.15C473.41,113.025,472.533,105.049,470.882,97.362z"/><path style="fill:#66bf00" d="M360.357,164.688l-26.089-26.089l-43.482-8.696l-26.089-34.786l-15.658,6.264 c-1.138,6.438-1.735,13.062-1.735,19.826c0,44.853,26.12,83.604,63.978,101.874l40.378-32.303L360.357,164.688z"/></g><path style="fill:#58ab23" d="M274.086,107.636l-9.39-12.52l-15.658,6.264c-1.138,6.438-1.735,13.062-1.735,19.826	c0,44.853,26.12,83.604,63.978,101.874l30.244-24.196C305.089,183.091,278.608,148.674,274.086,107.636z"/><path d="M229.911,156.535H116.314V8.153c0-4.503-3.65-8.153-8.153-8.153H82.797c-2.134,0-4.257,0.879-5.765,2.388L32.826,46.595	c-1.511,1.51-2.388,3.629-2.388,5.765v43.3c0,4.503,3.65,8.153,8.153,8.153c4.503,0,8.153-3.65,8.153-8.153V60.513h36.054	c4.503,0,8.153-3.65,8.153-8.153V16.306h9.058v148.382c0,4.503,3.65,8.153,8.153,8.153h113.597v53.265H46.743v-95.66	c0-4.503-3.65-8.153-8.153-8.153s-8.153,3.65-8.153,8.153v103.813c0,4.503,3.65,8.153,8.153,8.153h191.321	c4.503,0,8.153-3.65,8.153-8.153v-69.571C238.064,160.185,234.413,156.535,229.911,156.535z M74.644,44.207H58.272l16.372-16.372	V44.207z"/><path d="M229.911,269.588H160.34c-3.686,0-6.914,2.473-7.872,6.033l-18.217,67.662l-18.217-67.662	c-0.959-3.56-4.186-6.033-7.872-6.033H38.59c-5.274,0-9.245,5.171-7.872,10.273l60.875,226.106c0.959,3.56,4.186,6.033,7.872,6.033	h69.544c3.641,0,6.952-2.513,7.901-6.033l60.875-226.106C239.156,274.759,235.185,269.588,229.911,269.588z M105.713,495.694	l-56.485-209.8h52.685l56.485,209.8H105.713z M169.036,472.487l-26.412-98.101c0.202-0.43,0.376-0.879,0.503-1.354l23.461-87.138	h52.685L169.036,472.487z"/><path d="M438.624,269.588h-35.148c-4.504,0-8.153,3.65-8.153,8.153s3.649,8.153,8.153,8.153h26.995v35.873H351.66	c-4.504,0-8.153,3.65-8.153,8.153v34.786c0,4.503,3.649,8.153,8.153,8.153h44.025v35.873H351.66c-4.504,0-8.153,3.65-8.153,8.153	v34.786c0,4.503,3.649,8.153,8.153,8.153h78.811v35.873h-96.022V459.64c0-4.503-3.649-8.153-8.153-8.153h-36.054V285.894h79.173	c4.504,0,8.153-3.65,8.153-8.153s-3.649-8.153-8.153-8.153h-87.326c-4.504,0-8.153,3.65-8.153,8.153V459.64	c0,2.136,0.876,4.254,2.387,5.765l44.207,44.207c1.511,1.51,3.629,2.388,5.766,2.388h112.328c4.504,0,8.153-3.65,8.153-8.153	v-52.178c0-4.503-3.649-8.153-8.153-8.153h-78.811v-18.48h44.025c4.504,0,8.153-3.65,8.153-8.153v-52.178	c0-4.503-3.649-8.153-8.153-8.153h-44.025v-18.48h78.811c4.504,0,8.153-3.65,8.153-8.153v-52.178	C446.777,273.238,443.128,269.588,438.624,269.588z M318.143,484.165l-16.371-16.371h16.371V484.165z"/><path d="M360.357,242.412c66.833,0,121.206-54.373,121.206-121.206S427.19,0,360.357,0S239.151,54.373,239.151,121.206	S293.524,242.412,360.357,242.412z M453.927,168.595l-15.342-23.012l6.968-34.841l18.737-3.747	c0.633,4.649,0.966,9.392,0.966,14.212C465.257,138.249,461.169,154.352,453.927,168.595z M423.693,37.642l-34.316,34.316	c-1.528,1.529-2.387,3.604-2.387,5.766v25.086l-3.107,12.43l-7.538-15.073c-0.635-1.269-1.589-2.351-2.77-3.137l-23.761-15.842	l-7.813-23.436c-0.812-2.435-2.722-4.345-5.156-5.157l-23.228-7.743l-7.898-13.163c15.923-9.753,34.634-15.384,54.637-15.384	C384.132,16.306,406.08,24.261,423.693,37.642z M292.472,41.302l8.717,14.527c1.001,1.669,2.565,2.924,4.412,3.539l22.221,7.407	l7.407,22.221c0.573,1.721,1.703,3.2,3.212,4.206l24.288,16.193l16.424,32.848c1.534,3.07,4.933,4.876,8.334,4.438	c3.292-0.424,6.061-2.886,6.867-6.107l8.696-34.786c0.162-0.647,0.244-1.311,0.244-1.977V81.1l32.602-32.602	c11.419,11.861,20.078,26.395,24.937,42.558l-23.809,4.761c-3.227,0.646-5.751,3.169-6.396,6.396l-8.696,43.482	c-0.424,2.12,0.012,4.322,1.211,6.121l17.393,26.089c0.084,0.126,0.171,0.249,0.261,0.37l3.911,5.216	c-19.124,25.834-49.814,42.614-84.352,42.614c-11.565,0-22.697-1.886-33.109-5.358l29.506-23.604	c1.227-0.982,2.145-2.297,2.642-3.788l8.696-26.089c0.976-2.93,0.214-6.159-1.97-8.343l-26.089-26.089	c-1.139-1.138-2.588-1.914-4.167-2.23l-40.427-8.085l-24.219-32.294c-2.212-2.949-6.128-4.046-9.55-2.677l-0.776,0.311	C267.037,69.581,278.089,53.542,292.472,41.302z M256.391,107.22l5.531-2.213l22.341,29.787c1.203,1.604,2.957,2.71,4.923,3.102	l41.061,8.213l20.78,20.781l-6.342,19.024l-34.349,27.48c-32.665-17.795-54.881-52.446-54.881-92.188	C255.456,116.464,255.778,111.796,256.391,107.22z"/></svg>