<svg xmlns="http://www.w3.org/2000/svg" xmlns:xlink="http://www.w3.org/1999/xlink" id="Layer_1" x="0" y="0" version="1.1" viewBox="0 0 496.159 496.159" xml:space="preserve" style="enable-background:new 0 0 496.159 496.159"><path style="fill:#487206" d="M248.083,0.003C111.071,0.003,0,111.063,0,248.085c0,137.001,111.07,248.07,248.083,248.07	c137.006,0,248.076-111.069,248.076-248.07C496.159,111.062,385.089,0.003,248.083,0.003z"/><g><path style="fill:#64a80d" d="M404.555,289.47c-1.045-0.249-0.959-1.628-1.294-2.586c-4.678-0.081-9.13,0.065-12.5,1.292 c-1.127-0.453-1.409-1.75-1.292-3.448c-4.153,0.159-6.997,1.625-10.777,2.156c-0.667-0.626-0.905-1.682-0.862-3.018 c-4.533-0.079-7.058,1.851-9.915,3.448c-1.34-0.097-0.729-2.145-0.863-3.448c-4.698,0.043-7.144,2.339-9.914,4.31 c-1.016-0.85-0.598-3.137-1.292-4.31c-4.095,0.791-6.106,3.665-9.053,5.604c-1.35-0.23-1.553-1.608-1.725-3.017 c-3.595,1.002-5.681,3.515-8.189,5.604c-2.005,0.282-1.504-1.944-2.587-2.586c-3.422,1.032-4.283,4.625-7.759,5.604 c-1.213,0.062-1.243-1.057-1.293-2.156c-3.93,1.818-6.835,4.66-9.914,7.329c-1.351,0.202-1.216-1.084-1.724-1.725 c-3.143,1.886-5.827,4.232-8.191,6.896c-0.851-0.297-1.149-1.149-1.292-2.155c-3.569,2.034-5.931,5.277-9.484,7.328 c-0.823-0.182-1.854-0.156-1.723-1.293c-8.706,8.537-21.93,12.556-34.917,16.812c1.151-3.98,5.103-6.462,8.191-9.053 c10.458-8.773,22.043-18.526,37.933-22.416c0.321-1.327-1.184-0.828-0.862-2.154c3.265-3.919,10.041-4.328,15.518-6.035 c1.008-1.134-1.232-1.634-1.293-3.018c3.874-2.162,9.339-2.73,13.363-4.742c0.333-1.679-1.594-2.235-0.431-3.449 c5.358-1.395,10.455-3.052,14.655-5.603c-0.418-1.737-2.422-1.887-2.585-3.88c4.708-1.039,9.542-1.953,13.364-3.879 c-0.463-1.98-2.353-2.533-2.587-4.742c5.166-0.868,9.511-2.557,13.362-4.741c-0.17-2.128-2.148-2.45-2.586-4.311 c3.411-1.906,7.459-3.174,12.07-3.88c-0.375-1.667,0.721-1.865,1.292-2.586c-1.078-1.796-3.648-2.1-3.88-4.742 c4.546-1.634,8.682-3.675,11.209-7.329c-0.037-2.262-2.915-1.684-3.019-3.878c4.124-2.344,8.3-4.633,11.208-8.191 c-0.299-1.856-2.538-1.772-3.018-3.449c2.839-3.913,7.007-6.499,9.914-10.345c-0.39-1.765-2.412-1.898-3.017-3.449 c2.914-5.137,11.086-9.113,9.053-16.38c3.734-6.035,7.703-11.837,10.775-18.535c1.157-1.43,2.783-2.39,2.156-5.604 c-8.573,4.647-15.828,10.611-24.571,15.087c-1.637-0.086-1.635-1.813-3.448-1.725c-4.865,2.75-9.376,5.854-12.931,9.915 c-2.139-0.016-2.639-1.672-3.449-3.017c-4.627,2.413-7.147,6.934-10.776,10.345c-1.3-0.855-2.572-1.74-3.018-3.448 c-3.984,2.768-6.835,6.67-8.621,11.638c-2.303-0.141-2.035-2.852-3.88-3.448c-3.571,2.75-6.324,6.321-7.328,11.639 c-2.851-0.167-2.984-3.051-5.172-3.88c-2.923,3.397-4.703,7.941-5.603,13.363c-2.388,0.087-2.575-2.024-4.312-2.587 c-3.334,2.843-4.62,7.737-5.171,13.363c-2.573-0.158-2.855-2.605-5.173-3.017c-1.346,4.257-3.132,8.075-3.449,13.362 c-2.732,0.434-2.169-2.428-4.311-2.585c-2.22,4.676-4.441,9.353-5.172,15.518c-1.874,0.148-2.406-1.043-3.88-1.293 c-1.075,4.672-3.182,8.312-3.88,13.363c-2.186,0.636-2.666-1.859-3.879-0.862c-1.086,5.379-2.386,10.546-4.741,14.656 c-1.481,0.188-2.416-0.171-3.448-0.431c-4.168,21.55-18.723,32.716-29.744,47.415c-2.159-1.849-0.302-4.849,0-7.328 c2.352-19.225,5.038-38.77,13.794-51.296c-2.189,0.465-2.652-0.795-3.449-1.723c2.156-7.329,5.713-13.254,9.483-18.967 c-1.056-0.668-2.805-0.644-4.311-0.863c1.779-6.698,6.54-10.417,7.76-17.673c-1.444-0.137-2.718-0.445-3.45-1.293 c2.87-6.614,7.056-11.912,8.622-19.83c-2.105-0.05-4.542,0.232-6.035-0.431c2.924-5.552,7.076-9.879,8.622-16.811 c-2.686,0.242-4.542-0.344-6.467-0.863c2.44-5.621,7.274-11.099,7.329-17.673c-2.756,0.169-4.541-0.632-6.897-0.862 c2.931-5.273,7.31-11.35,6.897-18.536c-2.388,0.424-5.441,0.713-7.759,0c2.235-4.824,5.29-11.066,3.448-18.535 c-2.013,0.429-3.817,1.067-6.466,0.862c1.788-5.187,4.656-13.141,2.586-19.397c-1.215,0.653-2.695,1.042-4.742,0.862 c-0.439-0.28-0.445-0.991-1.294-0.862c0.894-6.27,0.629-11.855,0.433-18.536c-2.013,0-4.025,0-6.036,0 c-0.905-10.401-0.759-15.286-3.448-22.846c-1.714,0.375-2.166,0.375-3.879,0c-1.351-13.163-4.941-24.084-9.053-34.485 c-0.696-0.121-0.742,0.408-1.293,0.432c-2.33,12.757-4.597,25.576-8.622,36.64c-1.361,0.581-1.693-0.161-3.879,0.431 c-2.185,6.292-3.336,13.619-3.018,22.415c-2.105-0.05-4.542,0.233-6.035-0.431c-1.142,6.101-0.722,12.732,0,18.967 c-1.529,1.617-4.468,0.378-6.466,0c-1.169,6.577,0.939,12.973,2.586,18.104c-1.502,1.262-3.922,0.72-6.034,0.431 c-1.795,7.282,1.263,13.373,3.448,18.104c-2.394,1.332-5.081,0.48-8.19,0.432c0.88,7.747,3.285,12.496,7.329,17.673 c-0.941,2.076-5.083,0.953-7.329,1.724c1.654,6.824,4.569,12.386,8.19,17.242c-1.649,1.081-4.24,1.22-6.897,1.293 c1.713,6.477,5.079,11.303,8.622,15.949c-0.614,1.829-3.705,1.181-6.035,1.294c1.825,7.659,5.818,13.148,8.621,19.828 c-0.569,1.156-2.733,0.716-3.879,1.293c1.586,6.603,6.524,9.855,7.327,17.243c-0.06,1.232-1.798,0.789-3.017,0.862 c2.587,6.753,7.045,11.634,9.053,18.966c-0.477,1.393-1.373,2.365-3.449,2.155c10.384,13.733,12.027,33.861,15.087,55.176 c-0.5-0.07-0.767,0.095-0.862,0.432c-6.232-5.151-11.074-12.35-16.379-19.397c-5.934-7.882-12.393-15.392-13.795-27.587 c-7.232,1.417-6.003-9.178-8.189-14.226c-1.167-1.041-1.533,1.333-3.449,0.862c-1.597-4.293-2.929-8.854-4.311-13.363 c-1.531,0.049-1.567,1.594-3.448,1.293c-1.535-5.505-3.114-10.967-5.604-15.518c-1.821,0.333-1.675,2.636-3.88,2.585 c-1.183-4.563-2.239-9.254-3.879-13.362c-2.024,0.562-2.824,2.349-4.742,3.017c-1.249-4.93-2.153-10.204-5.172-13.363 c-2.013,0.287-2.339,2.259-4.312,2.587c-1.751-4.715-2.793-10.139-6.034-13.363c-2.028,0.846-2.398,3.35-4.742,3.88 c-2.052-4.702-3.646-9.86-8.621-11.639c-0.235,1.776-1.417,2.604-2.586,3.448c-2.274-4.478-5.007-8.5-8.621-11.638 c-1.342,0.814-1.585,2.725-3.018,3.448c-4.133-2.907-6.399-7.681-10.776-10.345c-1.387,0.769-1.474,2.837-3.448,3.017 c-4.113-3.646-8.277-7.241-13.363-9.915c-1.575,0.007-1.937,1.226-3.018,1.725c-9.202-4.304-16.354-10.66-25.433-15.087 c3.358,8.712,8.192,15.95,12.933,23.277c-1.2,8.461,5.877,11.781,9.483,16.812c-0.385,1.771-2.112,2.199-3.017,3.448 c2.572,4.181,6.679,6.829,9.914,10.346c-0.084,2.215-2.74,1.858-3.018,3.88c2.908,3.558,7.084,5.847,11.208,8.191 c0.183,2.482-3.052,1.545-3.018,3.878c2.701,3.335,6.018,6.052,11.208,6.898c-0.085,2.788-2.243,3.504-3.88,4.742 c2.957,4.466,8.333,3.914,12.501,6.897c0.526,1.984-1.886,3.258-1.293,3.88c3.032,2.858,7.313,4.467,12.931,4.741 c0.035,2.622-2.119,3.053-2.585,5.173c4.028,1.576,7.877,3.33,13.362,3.449c0.086,2.385-1.98,2.618-2.586,4.311 c4.367,2.242,8.59,4.629,14.656,5.172c0.97,1.663-0.508,1.992-0.431,3.88c4.149,1.743,8.812,2.971,13.363,4.311 c0.268,1.817-2.346,2.181-1.292,3.449c5.526,1.514,11.682,2.398,15.518,5.604c0.461,1.61-1.07,1.228-0.862,2.585 c20.529,5.478,33.47,18.544,46.985,31.037c-11.272-1.947-23.104-7.068-31.898-12.932c-0.861-1.438-2.371-2.229-3.449-3.448 c-0.576,0.43-0.847,1.165-1.724,1.293c-3.617-1.843-6.4-4.52-9.052-7.328c-1.473-0.324-0.548,1.751-2.155,1.293 c-3.084-1.515-4.986-4.211-7.76-6.035c-1.107,0.042-0.616,1.683-1.724,1.725c-3.468-2.28-6.224-5.271-9.915-7.329 c-0.875,0.276-0.284,2.015-1.294,2.156c-3.814-0.641-4.667-4.242-7.759-5.604c-1.749-0.026-0.777,2.671-2.587,2.586 c-3.021-1.721-4.768-4.712-8.621-5.604c0.012,1.448-0.593,2.281-1.293,3.017c-3.518-1.512-5.133-4.925-9.483-5.604 c-0.681,0.899-0.299,2.862-0.863,3.879c-2.833-0.24-5.396-4.333-10.346-3.879c-0.051,1.242,0.235,2.822-0.431,3.448 c-3.562-1.035-5.425-3.77-10.345-3.448c0.251,1.399-0.293,2.005-0.43,3.018c-4.099-0.356-6.878-2.032-11.208-2.156 c0.25,1.687-0.37,2.502-0.861,3.448c-3.574-1.023-7.749-1.447-12.502-1.292c-0.623,0.67-0.906,1.68-1.293,2.586 c-7.891,0.215-13.733-0.018-21.984,0c4.556,4.64,11.06,7.333,17.674,9.915c0.905,5.704,8.031,5.187,12.5,7.328 c0.306,1.598-0.737,1.849-0.432,3.448c3.205,0.963,6.528,1.806,10.345,2.155c0.629,0.756-0.265,2.6-0.431,3.88 c2.687,1.05,6.598,0.874,10.346,0.861c0.993,1.044-0.439,2.094-0.431,3.449c2.742,1.615,7.24,0.541,10.777,0.43 c0.265,1.99-0.968,2.481-0.863,4.311c3.629,0.956,7.35-0.718,10.777-1.293c0.978,0.458,0.164,2.709,0.431,3.88 c4.201,0.034,7.162-1.172,10.345-2.156c1.238,0.852-0.15,2.69,0,3.879c4.056-0.111,6.64-1.695,9.914-2.586 c0.973,0.321,0.169,2.417,0.431,3.448c3.849,0.405,10.494-4.143,12.502,0c3.148-0.73,6.024-1.735,9.483-2.154 c0.891,0.259,1.633,0.667,1.292,2.154c3.397-1.059,6.786-2.124,10.345-3.017c1.5,0.081,1.917,1.246,2.587,2.155 c13.914-4.875,33.67-0.572,45.693,1.293c-6.239,4.707-13.273,8.191-22.416,8.189c0,0.576,0,1.151,0,1.725 c-4.725-0.415-6.315,2.306-10.776,2.155c-0.56,2.458-4.57,1.465-6.466,2.587c-1.296-0.436-0.763,0.96-0.862,1.724 c-1.295,0.574-3.297,0.438-5.173,0.431c-0.718,0.856,0.04,0.548,0,1.724c-1.645,1.384-6.992-0.156-5.173,3.449 c-1.139,0.872-3.957,0.065-5.173,0.862c-0.939,0.901,0.216,1.23,0,2.585c-1.53,0.625-3.373,0.937-4.741,1.725 c-0.809,0.821,0.256,0.78,0,2.156c-1.407,1.036-3.338,1.547-4.741,2.585c-0.314,1.177,0.856,0.869,0.861,1.725 c-1.399,1.188-3.256,1.915-4.741,3.018c-0.801,0.762,0.188,1.258,0.43,2.156c-5.613,3.868-8.071,10.894-13.363,15.087 c6.596-2.111,12.928-2.063,18.105-5.173c1.608-0.458,0.682,1.617,2.156,1.293c3.018-3.547,7.5-0.477,9.915-4.742 c2.522,1.794,4.143-0.519,5.603-2.155c1.61-0.461,1.229,1.069,2.587,0.862c0.928-1.37,2.327-2.271,2.585-4.312 c1.61-0.46,1.229,1.072,2.586,0.863c0.862-1.438,2.26-2.338,2.586-4.311c1.327-0.321,0.83,1.184,2.156,0.862 c0.654-1.357,1.918-2.103,2.155-3.88c0.88-1.022,1.705,0.593,2.586-0.431c2.096-4.269,5.501-4.568,7.327-9.053 c0.774-0.054,0.91,0.529,1.725,0.432c5.613-9.187,13.052-16.548,22.416-21.984c3.058,27.269,4.363,63.473,3.017,93.109 c-0.37,8.151-1.393,16.905-6.467,21.984c-0.64,3.859-0.742,9.592,1.294,12.069c9.588-3.807,7.92-23.718,10.346-35.347 c-0.212-17.64,0.09-42.811-1.293-65.089c-0.565-9.096-1.681-17.987-0.862-26.295c8.99,5.236,15.688,12.76,21.553,21.121 c3.004-0.8,2.311,4.536,6.035,4.312c0.747,1.84,1.79,3.383,3.018,4.742c0.821,0.808,1.083,0.047,2.156,0 c0.673,1.626,1.68,2.919,2.585,4.311c1.176,0.314,0.868-0.856,1.725-0.862c1.059,1.383,1.87,3.015,3.018,4.311 c1.327,0.322,0.829-1.183,2.155-0.863c1.022,1.421,1.781,3.105,3.017,4.312c1.358,0.208,0.977-1.323,2.587-0.862 c1.078,0.934,1.8,2.223,3.018,3.017c2.685-1.923,4.072,0.946,6.035,2.155c2.416-2.012,4.009,0.491,6.034,1.293 c1.002,1.042,1.155-0.673,2.155-0.861c5.564,2.918,11.739,3.113,18.536,5.173c-5.389-3.952-7.363-11.316-13.362-14.656 c-0.011-1.016,0.741-1.269,0.43-2.586c-1.598-0.845-2.771-2.115-4.741-2.586c-0.321-1.328,1.184-0.83,0.862-2.156 c-1.56-0.738-2.68-1.917-4.741-2.154c-0.35-1.491,0.805-1.821,0-2.587c-1.607-0.405-2.395-1.628-4.741-1.293 c-1.001-0.995,0.798-1.39,0.431-3.017c-1.576-0.293-3.135-0.601-5.173-0.431c-1.213-0.437,0.119-1.832,0-2.587 c-2.522-0.505-6.479-0.355-5.604-3.017c-2.957,0.227-5.661,0.201-5.603-2.586c-2.264,0.252-3.265-0.76-5.604-0.431 c-0.583-0.421-0.559-1.454-1.293-1.724c-4.534,0.224-5.938-2.682-10.776-2.155c-0.759-0.104-0.982-0.742-0.862-1.725 c-7.293,0.257-15.709-3.907-21.554-7.759c11.93-2.675,31.595-6.422,45.261-1.724c1.294-0.287,1.215-1.946,2.587-2.155 c3.873,0.725,7.225,1.971,10.777,3.017c-0.369-1.374,0.375-1.636,0.862-2.154c3.599,0.279,6.469,1.289,9.484,2.154 c2.41-4.031,8.761,0.321,12.931,0c0-1.15,0-2.299,0-3.448c3.662,0.648,6.079,2.54,10.344,2.586 c-0.018-1.418-0.727-2.146-0.431-3.879c3.582,0.729,6.337,2.285,10.777,2.156c0-1.293,0-2.587,0-3.88 c3.821,0.309,7.259,2.447,11.207,1.293c0.134-1.714-0.995-2.165-0.862-3.88c2.748-1.001,8.163,1.115,10.777-0.861 c-0.072-1.221-0.791-1.797-0.863-3.018c3.035-0.989,8.144,0.097,10.777-1.293c-0.451-0.987-0.274-2.6-0.863-3.449 c3.345-1.108,7.563-1.345,10.777-2.587c0.346-1.495-0.642-1.657-0.431-3.017c3.41-3.055,11.499-1.433,12.069-7.328 c6.427-3.057,13.501-5.465,18.105-10.346C417.124,289.452,413.03,289.756,404.555,289.47z"/><path style="fill:#7abc1b" d="M252.391,359.733c-0.067-1.084-4.033-9.069-4.225-21.868c-1.093-72.878,0.001-301.857,0.001-301.857 c-0.386,0.074-0.551,0.13-0.949,0.431c-2.33,12.757-4.597,25.576-8.622,36.64c-1.361,0.581-1.693-0.161-3.879,0.431 c-2.185,6.292-3.336,13.619-3.018,22.415c-2.105-0.05-4.542,0.233-6.035-0.431c-1.142,6.101-0.722,12.732,0,18.967 c-1.529,1.617-4.468,0.378-6.466,0c-1.169,6.577,0.939,12.973,2.586,18.104c-1.502,1.262-3.922,0.72-6.034,0.431 c-1.795,7.282,1.263,13.373,3.448,18.104c-2.394,1.332-5.081,0.48-8.19,0.432c0.88,7.747,3.285,12.496,7.329,17.673 c-0.941,2.076-5.083,0.953-7.329,1.724c1.654,6.824,4.569,12.386,8.19,17.242c-1.649,1.081-4.24,1.22-6.897,1.293 c1.713,6.477,5.079,11.303,8.622,15.949c-0.614,1.829-3.705,1.181-6.035,1.294c1.825,7.659,5.818,13.148,8.621,19.828 c-0.569,1.156-2.733,0.716-3.879,1.293c1.586,6.603,6.524,9.855,7.327,17.243c-0.06,1.232-1.798,0.789-3.017,0.862 c2.587,6.753,7.045,11.634,9.053,18.966c-0.477,1.393-1.373,2.365-3.449,2.155c10.384,13.733,12.027,33.861,15.087,55.176 c-0.5-0.07-0.767,0.095-0.862,0.432c-6.232-5.151-11.074-12.35-16.379-19.397c-5.934-7.882-12.393-15.392-13.795-27.587 c-7.232,1.417-6.003-9.178-8.189-14.226c-1.167-1.041-1.533,1.333-3.449,0.862c-1.597-4.293-2.929-8.854-4.311-13.363 c-1.531,0.049-1.567,1.594-3.448,1.293c-1.535-5.505-3.114-10.967-5.604-15.518c-1.821,0.333-1.675,2.636-3.88,2.585 c-1.183-4.563-2.239-9.254-3.879-13.362c-2.024,0.562-2.824,2.349-4.742,3.017c-1.249-4.93-2.153-10.204-5.172-13.363 c-2.013,0.287-2.339,2.259-4.312,2.587c-1.751-4.715-2.793-10.139-6.034-13.363c-2.028,0.846-2.398,3.35-4.742,3.88 c-2.052-4.702-3.646-9.86-8.621-11.639c-0.235,1.776-1.417,2.604-2.586,3.448c-2.274-4.478-5.007-8.5-8.621-11.638 c-1.342,0.814-1.585,2.725-3.018,3.448c-4.133-2.907-6.399-7.681-10.776-10.345c-1.387,0.769-1.474,2.837-3.448,3.017 c-4.113-3.646-8.277-7.241-13.363-9.915c-1.575,0.007-1.937,1.226-3.018,1.725c-9.202-4.304-16.354-10.66-25.433-15.087 c3.358,8.712,8.192,15.95,12.933,23.277c-1.2,8.461,5.877,11.781,9.483,16.812c-0.385,1.771-2.112,2.199-3.017,3.448 c2.572,4.181,6.679,6.829,9.914,10.346c-0.084,2.215-2.74,1.858-3.018,3.88c2.908,3.558,7.084,5.847,11.208,8.191 c0.183,2.482-3.052,1.545-3.018,3.878c2.701,3.335,6.018,6.052,11.208,6.898c-0.085,2.788-2.243,3.504-3.88,4.742 c2.957,4.466,8.333,3.914,12.501,6.897c0.526,1.984-1.886,3.258-1.293,3.88c3.032,2.858,7.313,4.467,12.931,4.741 c0.035,2.622-2.119,3.053-2.585,5.173c4.028,1.576,7.877,3.33,13.362,3.449c0.086,2.385-1.98,2.618-2.586,4.311 c4.367,2.242,8.59,4.629,14.656,5.172c0.97,1.663-0.508,1.992-0.431,3.88c4.149,1.743,8.812,2.971,13.363,4.311 c0.268,1.817-2.346,2.181-1.292,3.449c5.526,1.514,11.682,2.398,15.518,5.604c0.461,1.61-1.07,1.228-0.862,2.585 c20.529,5.478,33.47,18.544,46.985,31.037c-11.272-1.947-23.104-7.068-31.898-12.932c-0.861-1.438-2.371-2.229-3.449-3.448 c-0.576,0.43-0.847,1.165-1.724,1.293c-3.617-1.843-6.4-4.52-9.052-7.328c-1.473-0.324-0.548,1.751-2.155,1.293 c-3.084-1.515-4.986-4.211-7.76-6.035c-1.107,0.042-0.616,1.683-1.724,1.725c-3.468-2.28-6.224-5.271-9.915-7.329 c-0.875,0.276-0.284,2.015-1.294,2.156c-3.814-0.641-4.667-4.242-7.759-5.604c-1.749-0.026-0.777,2.671-2.587,2.586 c-3.021-1.721-4.768-4.712-8.621-5.604c0.012,1.448-0.593,2.281-1.293,3.017c-3.518-1.512-5.133-4.925-9.483-5.604 c-0.681,0.899-0.299,2.862-0.863,3.879c-2.833-0.24-5.396-4.333-10.346-3.879c-0.051,1.242,0.235,2.822-0.431,3.448 c-3.562-1.035-5.425-3.77-10.345-3.448c0.251,1.399-0.293,2.005-0.43,3.018c-4.099-0.356-6.878-2.032-11.208-2.156 c0.25,1.687-0.37,2.502-0.861,3.448c-3.574-1.023-7.749-1.447-12.502-1.292c-0.623,0.67-0.906,1.68-1.293,2.586 c-7.891,0.215-13.733-0.018-21.984,0c4.556,4.64,11.06,7.333,17.674,9.915c0.905,5.704,8.031,5.187,12.5,7.328 c0.306,1.598-0.737,1.849-0.432,3.448c3.205,0.963,6.528,1.806,10.345,2.155c0.629,0.756-0.265,2.6-0.431,3.88 c2.687,1.05,6.598,0.874,10.346,0.861c0.993,1.044-0.439,2.094-0.431,3.449c2.742,1.615,7.24,0.541,10.777,0.43 c0.265,1.99-0.968,2.481-0.863,4.311c3.629,0.956,7.35-0.718,10.777-1.293c0.978,0.458,0.164,2.709,0.431,3.88 c4.201,0.034,7.162-1.172,10.345-2.156c1.238,0.852-0.15,2.69,0,3.879c4.056-0.111,6.64-1.695,9.914-2.586 c0.973,0.321,0.169,2.417,0.431,3.448c3.849,0.405,10.494-4.143,12.502,0c3.148-0.73,6.024-1.735,9.483-2.154 c0.891,0.259,1.633,0.667,1.292,2.154c3.397-1.059,6.786-2.124,10.345-3.017c1.5,0.081,1.917,1.246,2.587,2.155 c13.914-4.875,33.67-0.572,45.693,1.293c-6.239,4.707-13.273,8.191-22.416,8.189v1.725c-4.725-0.415-6.315,2.306-10.776,2.155 c-0.56,2.458-4.57,1.465-6.466,2.587c-1.296-0.436-0.763,0.96-0.862,1.724c-1.295,0.574-3.297,0.438-5.173,0.431 c-0.718,0.856,0.04,0.548,0,1.724c-1.645,1.384-6.992-0.156-5.173,3.449c-1.139,0.872-3.957,0.065-5.173,0.862 c-0.939,0.901,0.216,1.23,0,2.585c-1.53,0.625-3.373,0.937-4.741,1.725c-0.809,0.821,0.256,0.78,0,2.156 c-1.407,1.036-3.338,1.547-4.741,2.585c-0.314,1.177,0.856,0.869,0.861,1.725c-1.399,1.188-3.256,1.915-4.741,3.018 c-0.801,0.762,0.188,1.258,0.43,2.156c-5.613,3.868-8.071,10.894-13.363,15.087c6.596-2.111,12.928-2.063,18.105-5.173 c1.608-0.458,0.682,1.617,2.156,1.293c3.018-3.547,7.5-0.477,9.915-4.742c2.522,1.794,4.143-0.519,5.603-2.155 c1.61-0.461,1.229,1.069,2.587,0.862c0.928-1.37,2.327-2.271,2.585-4.312c1.61-0.46,1.229,1.072,2.586,0.863 c0.862-1.438,2.26-2.338,2.586-4.311c1.327-0.321,0.83,1.184,2.156,0.862c0.654-1.357,1.918-2.103,2.155-3.88 c0.88-1.022,1.705,0.593,2.586-0.431c2.096-4.269,5.501-4.568,7.327-9.053c0.774-0.054,0.91,0.529,1.725,0.432 c5.613-9.187,13.052-16.548,22.416-21.984c3.058,27.269,4.363,63.473,3.017,93.109c-0.37,8.151-1.393,16.905-6.467,21.984 c-0.64,3.859-0.742,9.592,1.294,12.069c9.588-3.807,7.92-23.718,10.346-35.347C253.473,407.182,253.775,382.011,252.391,359.733z"/></g></svg>